<?xml version="1.0" encoding="utf-8"?>
<!-- Generator: Adobe Illustrator 24.3.0, SVG Export Plug-In . SVG Version: 6.00 Build 0)  -->
<svg version="1.1" id="Layer_1" xmlns="http://www.w3.org/2000/svg" xmlns:xlink="http://www.w3.org/1999/xlink" x="0px" y="0px"
	 viewBox="0 0 1920 1080" style="enable-background:new 0 0 1920 1080;" xml:space="preserve">
<style type="text/css">
	.st0{clip-path:url(#SVGID_2_);}
	.st1{fill:#ACBDB6;}
	.st2{fill:#393A44;}
	.st3{fill:none;stroke:#C19364;stroke-width:2;stroke-miterlimit:10;}
	.st4{fill:#393A44;stroke:#393A44;stroke-width:3;stroke-miterlimit:10;}
</style>
<g>
	<defs>
		
			<rect id="SVGID_1_" x="420" y="-420" transform="matrix(-1.346898e-10 1 -1 -1.346898e-10 1500 -420)" width="1080" height="1920"/>
	</defs>
	<clipPath id="SVGID_2_">
		<use xlink:href="#SVGID_1_"  style="overflow:visible;"/>
	</clipPath>
	<g class="st0">
		<path class="st1" d="M183.3-110.3c-64.8-90.2-187.6-126-288.8-111.5c-101.2,14.5-185.9,69.2-266.8,123.7
			c-28.5,19.2-57,38.6-85.3,58.2c-90.5,62.5-161.1,157.1-144.8,280c11.8,89.2,54.8,175.4,97,259.4c20.1,40.1,41,81.1,73.1,113.8
			c33.9,34.4,78,56.9,122.6,72.5c157.7,55.4,332.7,27,439.3-76c58.2-56.2,95-130.5,136.8-200.1c34.3-57.2,72.9-113,88.6-179.5
			c15.7-66.5,3.7-148-50.3-202.3c-21.2-21.3-47.6-37.2-67.9-59.4C215-55.2,201.8-84.5,183.3-110.3z"/>
		<path class="st1" d="M1689.7,634.9c-79.2,52.1-111.9,156.8-100.6,245.1c11.2,88.3,57.6,164.1,103.9,236.6
			c16.3,25.6,32.8,51.1,49.4,76.5c53.1,81.2,134.2,146.6,241.2,137.9c77.6-6.2,153-39.6,226.6-72.4c35.1-15.7,71-31.8,99.8-58.2
			c30.3-27.8,50.4-65.1,64.6-102.9c50.2-134.1,27.9-286.9-60.1-383.8c-48-52.9-112.1-88.1-172-127.4
			c-49.2-32.3-97.1-68.2-154.7-84.8c-57.6-16.6-128.5-9.9-176.4,34.5c-18.8,17.4-33,39.6-52.5,56.1
			C1738,609.9,1712.4,620,1689.7,634.9z"/>
		<path class="st1" d="M1686.8-181.2L951.4-251c0,0-74.1,506.2,134.9,385.2c231.6-134.1,225.6,58.2,365,77
			C1620.6,234.1,1686.8-181.2,1686.8-181.2z"/>
		<path class="st1" d="M280.3,582.8c-17.8-3.1-44.2,7.5-35,44.4c3.6,14.3,39.1,18.1,51.8,3.8C310.7,615.6,295.8,585.4,280.3,582.8z"
			/>
		<path class="st1" d="M988.8,865.5c-34.2-5.9-85,14.4-67.4,85.5c6.8,27.5,75.3,34.8,99.7,7.2
			C1047.3,928.8,1018.7,870.7,988.8,865.5z"/>
		<g>
			<g>
				<g>
					<path class="st2" d="M1966.8,715.6c-36.4-7.9-67-28.4-96.7-49.5c-28.2-20-56.2-39.6-88.4-52.9c-26.4-10.9-54.3-17.6-80.4-29.6
						c-27.4-12.6-48-34.2-63.7-60.1c-0.7,1.4-1.4,2.7-2.1,4.1c18.1,2.6,35.4,8.8,53.3,12.3c10.5,2,20.9,2.7,31.1,6
						c7.9,2.6,14.6,7.6,21.1,12.4c27.8,20.2,50.4,47.2,70.7,75.1c2.3,3.1,5.4-1,3.4-3.7c-20.7-28.4-43.6-55.4-71.8-76.1
						c-15.3-11.3-30.7-16.2-49.8-18.7c-19.8-2.6-38.4-10.2-58.2-13c-2.2-0.3-3,2.6-2.1,4.1c13.8,22.7,31.9,44.6,55.2,57.4
						c25.8,14.1,54.2,21.6,81.8,31.4c71.2,25.2,121.5,90.3,196.6,106.5C1970.3,722.1,1969.7,716.2,1966.8,715.6L1966.8,715.6z"/>
				</g>
				<g>
					<path class="st2" d="M1635.5,527.8c16.2,3.7,30.5,17.6,43.5,27.1c15.4,11.3,33.8,16.1,50.5,25c28.6,15.2,58.1,33,82.8,54.1
						c2.9,2.5,4.7-2.7,2.4-4.8c-24.6-21.1-54-38.3-82.3-53.9c-18.1-10-37.7-15.5-54.5-27.9c-12.7-9.4-26.5-21.9-42.4-25.5
						C1632,521.2,1632.7,527.1,1635.5,527.8L1635.5,527.8z"/>
				</g>
				<g>
					<g>
						<path class="st2" d="M1945,711.6c-10.6-29.8-25.7-56.6-32.9-87.8c-6.5-28.5-11-64,4-91.8c-1.3,0.1-2.6,0.1-3.9,0.2
							c5.1,6.6,6.4,14.7,8.4,22.8c1.6,6.6,4.2,12.7,6.8,18.8c6.6,15.2,12.2,30,15.1,46.7c5.3,30.6,0.3,60.4-2.4,91.3
							c-0.3,3.4,4.7,4.6,5,0.6c1.4-15.5,4-30.9,5-46.4c1-16.6-0.6-33.6-3.4-49.7c-2.8-16-8.7-30.4-15.1-44.9
							c-6.1-13.8-6.8-30.9-16-42.9c-1-1.3-3.1-1.5-3.9,0.2c-14.1,26-11.4,57.5-6.7,84.7c2.6,15,6.6,29.7,11.7,43.9
							c6.8,18.9,16.7,36.3,23.4,55.3C1941.3,715.8,1946.3,715.3,1945,711.6L1945,711.6z"/>
					</g>
					<g>
						<path class="st2" d="M1911.3,530c0.9,27.6,1.1,56.5,9,82.7c9.1,30.4,12,62.4,20.5,93c0.9,3.4,5.9,2.9,4.8-0.9
							c-8.1-29.5-10.3-60.5-19.4-89.7c-8.4-26.8-8.9-56-9.8-84.4C1916.3,527.3,1911.2,526,1911.3,530L1911.3,530z"/>
					</g>
				</g>
				<g>
					<g>
						<path class="st2" d="M1838.1,645.8c-25.9,13.5-52.2,23-80.6,27.1c-27.6,4-57.6,6.6-83.2-4.2c0.3,1.8,0.5,3.6,0.8,5.4
							c12.5-7.7,26.8-9.3,40.5-12.4c13.8-3,27-7.8,41-10c26.3-4.2,57-7.7,82.4-0.5c3.6,1,4.1-4.6,1.1-5.5c-24.6-7-52.7-3.7-78.3-0.7
							c-16.3,1.9-31.7,7.1-47.7,11c-14.2,3.4-28.8,4.8-41.8,12.8c-2.2,1.3-1.1,4.6,0.8,5.4c25.6,10.8,55,8.5,82.7,4.9
							c30-3.9,57.7-13.8,85-28C1843.7,649.6,1841,644.3,1838.1,645.8L1838.1,645.8z"/>
					</g>
					<g>
						<path class="st2" d="M1679.8,674.2c25.3-0.9,50.3-6.2,75.4-10.2c28.3-4.5,56.7-7.9,85-12.7c3.3-0.6,1.6-6.3-1.4-5.8
							c-27.1,4.5-54.3,8-81.4,12.1c-26.3,3.9-52.5,9.8-79,10.7C1675.1,668.6,1676.8,674.3,1679.8,674.2L1679.8,674.2z"/>
					</g>
				</g>
			</g>
			<g>
				<g>
					<path class="st2" d="M1914,698.3c-12.6,0.7-24.8,3.8-37.1,7.2c-12.1,3.4-24.4,6.1-36.4,9.8c-10.9,3.4-21.4,8.2-31.4,14
						c-10.6,6.1-21.8,11.6-29.4,21.7c-1.3,1.7-0.5,5.2,1.9,5.1c12.4-0.2,23.8-5.6,36.4-5.2c12.8,0.4,25.2-0.8,37.9-4.1
						c24.1-6.2,44.7-24.3,60.6-43.5c2-2.4-1.5-7.1-3.7-4.5c-16.6,20.1-36.9,36.7-61.8,43.1c-12.1,3.1-24.1,3.4-36.3,3
						c-11.4-0.4-21.9,5.1-33.2,5.3c0.6,1.7,1.3,3.4,1.9,5.1c7.3-9.8,18.1-15,28.3-20.9c10.7-6.2,21.7-10.9,33.3-14.5
						c22.4-6.9,47.1-14.7,70.3-16C1918.7,703.9,1917.1,698.1,1914,698.3L1914,698.3z"/>
				</g>
				<g>
					<path class="st2" d="M1784.5,755c3.9-7.2,19.2-10.3,26-12.5c13.3-4.3,26.6-8.4,40-12.3c22.4-6.5,45.9-12.6,65.6-26.4
						c2.7-1.9,0-7.2-2.7-5.3c-23.8,16.6-52.6,22.1-79.4,30.5c-11.3,3.5-22.6,6.7-33.8,10.7c-6.5,2.3-16.6,5.1-20.2,11.9
						C1778.5,754.4,1782.7,758.3,1784.5,755L1784.5,755z"/>
				</g>
			</g>
			<g>
				<g>
					<path class="st2" d="M1881.5,675.9c-0.3-16.6-3.6-32.6-7.5-48.5c-4.3-17.8-7.7-35.9-12.6-53.5c-4.3-15.4-10.8-29.7-18.5-43.4
						c-7.5-13.3-14-27.5-26.8-36.2c-1.7-1.2-3.6-0.1-3.7,2.1c-0.2,8.1,1.4,15.5,3.3,23.2c2.4,10,2.6,19.3,1.9,29.7
						c-1.3,17.7,0.7,35.3,4.9,52.2c7.9,31.5,30.9,57.4,55.3,76.6c3,2.4,4.9-2.8,2.4-4.8c-25.6-20.2-46.9-46.3-54.4-79.5
						c-3.8-16.7-3.8-33.5-2.7-50.8c1-16-6.1-30.2-5.7-46c-1.2,0.7-2.5,1.4-3.7,2.1c12.7,8.7,18.9,23.3,26.3,36.5
						c8.1,14.4,14,29.7,18.3,45.9c3.8,14.4,6.4,29.2,10,43.6c4.1,16.5,7.8,33,8.1,50.3C1876.5,678.6,1881.6,679.9,1881.5,675.9
						L1881.5,675.9z"/>
				</g>
				<g>
					<path class="st2" d="M1814.2,500.2c4.6,2,6.9,9.7,8.7,14.1c2.8,6.8,4.9,14.1,6.9,21.2c4.8,17,9.5,34,13.9,51.1
						c8.1,31.3,15.2,64.3,33.5,90.9c2.2,3.2,5.4-0.9,3.4-3.7c-21.2-30.7-27.1-70.5-37-106.3c-4.2-15.3-8.1-30.8-13-45.8
						c-2.8-8.7-6.3-23-15.4-26.9C1811.9,493.3,1811.4,499,1814.2,500.2L1814.2,500.2z"/>
				</g>
			</g>
		</g>
		<g>
			<g>
				<g>
					<path class="st2" d="M388.7,1114.3c21.4-27.4,51-44.8,80.7-61.2c28.2-15.6,56-31.2,80.2-52.9c19.9-17.8,36.8-38.5,57.4-55.5
						c21.7-18,48.2-26.4,76.3-29.1c-0.9-1.1-1.7-2.3-2.6-3.4c-9.6,14.2-21.7,26.2-31.9,39.8c-5.9,8-10.8,16.5-17.7,23.6
						c-5.3,5.6-12.3,9.1-19,12.7c-28.2,15.2-60.1,23.2-91.7,29c-3.6,0.7-1.4,5,1.8,4.4c32.2-5.9,64.2-14.2,93-29.5
						c15.7-8.3,26-19.2,35.9-34.2c10.2-15.6,24.1-28.2,34.5-43.6c1.1-1.7-1-3.6-2.6-3.4c-24.7,2.4-50.4,8.7-70.6,23.2
						c-22.3,16-40.1,36.8-59.5,56c-50,49.6-125.1,65.5-169.1,122C381.7,1114.6,387,1116.5,388.7,1114.3L388.7,1114.3z"/>
				</g>
				<g>
					<path class="st2" d="M680.6,912.1c-9.7,12.1-27.2,18.5-40.4,25.6c-15.8,8.4-27.2,21.8-41.5,32.3c-24.4,17.9-51.3,35.5-79,47.6
						c-3.3,1.4,0.4,5.1,3,3.9c27.7-12.1,54.1-29.8,78.7-47.3c15.7-11.2,28.3-25.4,45.5-34.5c13.1-6.9,29.1-13.4,38.6-25.3
						C687.6,911.8,682.4,909.9,680.6,912.1L680.6,912.1z"/>
				</g>
				<g>
					<g>
						<path class="st2" d="M400.8,1097.6c29.3,3.2,57.9,1.3,87.1,8c26.6,6.1,58.2,16.7,75.5,40.6c0.5-1.1,1-2.3,1.4-3.4
							c-7.6,1.6-15-0.5-22.5-2.2c-6.1-1.4-12.4-1.7-18.6-1.9c-15.5-0.6-30.2-1.9-45.3-6.2c-27.9-7.9-50.8-24.2-75.7-39
							c-2.7-1.6-5.7,2.1-2.5,4c12.4,7.4,24.3,15.9,36.9,23c13.5,7.6,28.4,13.1,43.1,17.3c14.5,4.1,29,5,43.8,5.5
							c14.1,0.4,28.8,6.8,42.6,3.9c1.5-0.3,2.5-2,1.4-3.4c-16.1-22.3-43.7-32.9-68.4-39.9c-13.7-3.9-27.7-6.5-41.7-7.9
							c-18.7-2-37.3-0.7-56-2.7C398.9,1092.8,397.2,1097.2,400.8,1097.6L400.8,1097.6z"/>
					</g>
					<g>
						<path class="st2" d="M567,1142.9c-23.5-10.4-47.9-21.9-73.1-25.9c-29.3-4.7-57.3-15.2-86.4-20.5c-3.2-0.6-4.8,3.8-1.2,4.4
							c28.1,5.1,55,15.8,83.3,20c25.9,3.8,50.7,15.2,74.9,26C567.3,1148.2,570.4,1144.4,567,1142.9L567,1142.9z"/>
					</g>
				</g>
				<g>
					<g>
						<path class="st2" d="M499.4,1034.5c-0.8-27.2,1.8-53.2,9.9-78.7c7.9-24.8,17.7-51.1,37.2-68.2c-1.6-0.5-3.2-1-4.8-1.5
							c1.4,13.6-3,26.3-6,39.1c-3,12.8-4.4,25.9-8.2,38.5c-7.1,23.8-16.6,51-32.9,69.4c-2.3,2.6,2.2,5.3,4.1,3.2
							c15.8-17.9,24.4-42.7,32.3-65.5c5-14.5,6.8-29.5,10.1-44.5c2.9-13.4,7.6-26.1,6.2-40.3c-0.2-2.3-3.4-2.8-4.8-1.5
							c-19.5,17.1-29.5,42.8-37.6,67.5c-8.9,26.8-11.8,54.1-10.9,82.8C493.9,1037.6,499.5,1037.5,499.4,1034.5L499.4,1034.5z"/>
					</g>
					<g>
						<path class="st2" d="M539.7,890c-9.5,21.6-15.2,44.7-22,67.5c-7.7,25.6-16.3,50.9-23.8,76.5c-0.9,3,4.6,3.9,5.4,1.1
							c7.2-24.6,15.2-48.8,22.8-73.3c7.4-23.7,13-48,23-70.7C546.3,888.3,540.8,887.4,539.7,890L539.7,890z"/>
					</g>
				</g>
			</g>
			<g>
				<g>
					<path class="st2" d="M424.5,1077c4.5-10.9,6.9-22.4,9-34.1c2-11.5,4.8-22.9,6.5-34.5c1.6-10.5,1.8-21.3,1-32
						c-0.9-11.4-0.9-23-6.4-33.5c-0.9-1.7-4.2-2.5-5.1-0.5c-4.9,10.5-4.9,22.3-10.4,32.6c-5.6,10.6-9.6,21.5-11.9,33.5
						c-4.5,22.7,2.3,47.4,12,68.6c1.2,2.7,6.6,1.6,5.3-1.3c-10.1-22.1-15.9-45.8-11.2-69.4c2.3-11.4,6.9-21.7,12.2-31.7
						c4.9-9.4,4.6-20.5,9-30c-1.7-0.2-3.4-0.3-5.1-0.5c5.3,10.1,5.2,21.3,6.1,32.3c0.9,11.5,0.4,22.7-1.3,33.9
						c-3.3,21.6-6.7,45.6-15,65.5C417.9,1078.7,423.5,1079.6,424.5,1077L424.5,1077z"/>
				</g>
				<g>
					<path class="st2" d="M429.4,945.2c4.5,6.2,0.9,20.3,0,26.9c-1.8,12.9-3.7,25.8-5.9,38.6c-3.6,21.5-8,43.7-4.4,65.8
						c0.5,3,6,2.9,5.5-0.1c-4.3-26.7,2.7-53.2,6.6-79.1c1.6-10.9,3.5-21.7,4.7-32.7c0.7-6.4,2.4-16-1.8-21.8
						C432.3,940.4,427.4,942.4,429.4,945.2L429.4,945.2z"/>
				</g>
			</g>
			<g>
				<g>
					<path class="st2" d="M456.5,1058.7c14.1,6.5,28.8,10.1,43.8,13.3c16.7,3.6,33.3,8.1,50,11.1c14.7,2.6,29.3,3,44,2.1
						c14.2-0.9,28.8-0.6,41.3-7.8c1.7-1,1.5-3-0.3-3.9c-6.7-3.5-13.6-5.1-20.8-6.6c-9.3-2-17.3-5.6-25.7-10.4
						c-14.3-8.3-30-13.7-45.8-17c-29.7-6.1-60.7,2.7-86.7,15.4c-3.2,1.6,0.4,5.2,3.1,3.9c27.4-13.4,57.9-20.6,88.8-13.5
						c15.6,3.6,29.7,10.4,43.7,18.3c13.1,7.3,27.8,7.1,41,13.9c-0.1-1.3-0.2-2.6-0.3-4c-12.4,7.1-27.3,6.5-41.3,7.3
						c-15.4,1-30.6-0.3-45.9-3.2c-13.6-2.6-27.1-6.4-40.7-9.3c-15.5-3.2-30.9-6.8-45.6-13.6C456.3,1053.4,453.2,1057.2,456.5,1058.7
						L456.5,1058.7z"/>
				</g>
				<g>
					<path class="st2" d="M631.4,1073.4c-3.6,3.1-10.9,1.9-15.4,1.6c-6.9-0.4-13.8-1.6-20.6-2.8c-16.2-2.8-32.4-5.8-48.5-9
						c-29.6-5.9-60.2-13.3-90-8.6c-3.6,0.6-1.4,4.9,1.8,4.4c34.3-5.4,70.2,5.8,104.3,12c14.6,2.6,29.1,5.7,43.7,7.7
						c8.4,1.1,21.9,4,28.8-2C638.2,1074.3,633.6,1071.5,631.4,1073.4L631.4,1073.4z"/>
				</g>
			</g>
		</g>
		<g>
			<g>
				<g>
					<path class="st2" d="M-156.4,504.7c41.9-12,85.8-9.5,129.1-6c41.1,3.3,81.8,6.3,122.8,1.4c33.6-4,66.1-12.5,100.1-15.4
						c35.7-3,70.1,5.8,102.1,21c-0.1-1.6-0.3-3.2-0.4-4.8c-20.1,7.1-41.4,10.6-61.8,16.9c-11.9,3.7-23,8.5-35.3,10.8
						c-9.6,1.8-19.5,0.7-29.2-0.1c-40.8-3.6-80.7-16.3-118.7-30.8c-4.3-1.6-4.9,3.7-1.2,5.2c38.7,14.8,78.8,27.2,120.4,31.2
						c22.6,2.2,41.2-1.5,62.2-9.2c21.8-8,45.4-11,67.3-18.8c2.4-0.9,1.4-3.9-0.5-4.8c-28.2-13.3-60.2-23.6-91.9-22.9
						c-35,0.8-68.5,8.9-102.7,14.5c-88.1,14.6-179.8-18-266.2,6.8C-164.1,500.6-159.8,505.6-156.4,504.7L-156.4,504.7z"/>
				</g>
				<g>
					<path class="st2" d="M297.3,500.8c-18.8,5.2-42,0.1-61.1-1.7c-22.7-2.2-44.4,3.1-66.9,3.8c-38.6,1.2-79.6,0.7-117.8-5.5
						c-4.5-0.7-3.1,4.9,0.6,5.5c38.2,6.2,78.7,6.4,117.3,5.6c24.6-0.5,48-5.8,72.8-3.4c18.8,1.8,40.5,5.9,59,0.8
						C304.9,504.9,300.6,499.9,297.3,500.8L297.3,500.8z"/>
				</g>
				<g>
					<g>
						<path class="st2" d="M-131.8,496.8c29.3,21.4,61.4,37.7,88.2,62.2c24.4,22.3,51.1,52.1,53.1,85.2c1.3-0.8,2.6-1.5,3.9-2.2
							c-9.2-3.3-15.7-9.9-22.7-16.2c-5.7-5.1-12.2-9.3-18.6-13.5C-44.1,602-59,591.5-72.4,578c-24.5-24.9-38-54.5-54.5-83.9
							c-1.8-3.2-7.6-1.7-5.5,2.1c8.3,14.7,15.2,30,23.8,44.6c9.3,15.6,21.5,30.1,34.4,43.2c12.8,13,27.7,22.9,43.3,32.7
							c14.8,9.3,26.2,24.4,43,30.5c1.8,0.6,4-0.3,3.9-2.2c-1.9-30.9-24.3-58-46-80.1c-12-12.2-25.3-23.4-39.3-33.6
							c-18.7-13.6-39.6-24.1-58.3-37.8C-130.6,491.1-135.4,494.2-131.8,496.8L-131.8,496.8z"/>
					</g>
					<g>
						<path class="st2" d="M15.6,643.5C-2.5,619-20.7,593-45.1,573.4c-28.2-22.7-51.1-50.2-78.8-73.4c-3-2.6-7.8,0.5-4.3,3.4
							c26.7,22.4,48.2,49.4,75.7,71c25.3,19.9,44,46,62.6,71.3C12.3,648.6,18.2,647.1,15.6,643.5L15.6,643.5z"/>
					</g>
				</g>
				<g>
					<g>
						<path class="st2" d="M17.8,500.3c17.9-25.8,38.7-48.2,65-66.8c25.6-18.1,54.4-36.2,87.2-39.9c-1.4-1.5-2.8-3-4.1-4.5
							c-7.9,13.5-21.4,22.5-33.5,32.5c-12.1,10-22.6,21.2-35.4,30.6c-24.1,17.6-53.1,36.8-83.4,43.7c-4.3,1-1.3,6.3,2.2,5.5
							c29.4-6.6,55.8-24.3,80-40.4c15.4-10.3,27.7-23.1,41.6-34.9c12.3-10.6,26.2-19.5,34.4-33.5c1.4-2.3-1.7-4.7-4.1-4.5
							c-32.8,3.6-61.2,21.2-87.1,38.9c-28,19.3-50.1,42.7-68.9,69.9C9.8,499.8,15.8,503.2,17.8,500.3L17.8,500.3z"/>
					</g>
					<g>
						<path class="st2" d="M161,391.5c-25.1,14.1-47.2,32-70.2,48.8c-25.9,19-52.7,36.9-78.5,56.1c-3,2.3,2.3,6.5,5,4.5
							c24.7-18.3,50.1-35.8,75.1-53.7c24.3-17.4,47.2-36.4,73.6-51.2C169.3,394.1,164,389.8,161,391.5L161,391.5z"/>
					</g>
				</g>
			</g>
			<g>
				<g>
					<path class="st2" d="M-92,492.6c12.4-7.3,22.8-16.4,33.2-26c10.2-9.4,21-18.3,30.9-28c9-8.8,16.7-18.6,23.2-29.1
						c6.9-11.1,14.9-21.9,16.3-35.1c0.2-2.2-2.8-4.9-5.2-3.6c-12.5,6.6-20.7,17.6-33.7,23.8c-13.3,6.3-25.1,14-36,23.6
						c-20.6,18.3-30.3,45.4-34.5,71.2c-0.5,3.3,6,5.7,6.6,2.1c4.4-26.9,14.6-52.5,35.9-71.4c10.3-9.2,22.4-15.8,35-21.8
						c11.8-5.6,19.1-16.2,30.4-22.2c-1.7-1.2-3.4-2.4-5.2-3.6c-1.3,12.7-9.1,23.1-15.7,33.8c-7,11.2-15.3,21.3-24.9,30.6
						c-18.5,18-38.7,38.1-61.4,51.4C-100.3,490.1-95,494.4-92,492.6L-92,492.6z"/>
				</g>
				<g>
					<path class="st2" d="M4.2,373.3c0.5,8.5-13.1,19.4-18.6,24.9c-10.8,10.8-21.8,21.6-33,32.1c-18.7,17.6-38.8,35.5-50.2,58.3
						c-1.6,3.1,4.5,6.5,6,3.4c13.8-27.5,39.7-47.7,61.7-69.2c9.3-9.1,18.8-18,27.6-27.4c5.2-5.5,13.6-13.3,13.1-21.4
						C10.7,370.8,4,369.5,4.2,373.3L4.2,373.3z"/>
				</g>
			</g>
			<g>
				<g>
					<path class="st2" d="M-45,495.8c10.7,14.9,24,27.6,37.8,39.9C8.3,549.6,23,564.3,39,577.6c14,11.6,29.5,21.2,45.9,29.6
						c15.9,8.1,31.4,17.5,49.8,18.7c2.5,0.2,3.7-1.8,2.5-3.8c-4.8-7.4-11.1-13.3-17.8-19.3c-8.7-7.7-14.7-16.1-20.4-25.9
						c-9.7-16.7-22.7-31.6-37.5-44.6C33.7,508-5.8,496.6-42.6,492c-4.5-0.6-3.2,5.1,0.6,5.5c38.7,4.8,76.6,17.3,104.8,43.4
						c14.3,13.1,24.7,28.4,34.4,44.6c9,15,25,24.1,34.4,38.7c0.8-1.3,1.6-2.6,2.5-3.8c-18.3-1.2-33.8-11.2-49.5-19.2
						c-17.2-8.8-32.7-19.5-47.1-31.9c-12.8-11-24.7-23-37.4-34.2c-14.4-12.8-28.5-25.8-39.6-41.3C-41.7,490.8-47.6,492.3-45,495.8
						L-45,495.8z"/>
				</g>
				<g>
					<path class="st2" d="M132.9,619.5c-6,0.6-13.1-5.2-17.6-8.2c-7.1-4.7-13.7-10.2-20.2-15.6c-15.4-12.8-30.8-25.7-46-38.9
						c-27.8-24.1-55.5-50.3-90.8-64.7c-4.2-1.7-4.9,3.7-1.1,5.2C-2.2,514,28.6,546.9,61,574.1c13.8,11.6,27.4,23.6,41.7,34.7
						c8.3,6.4,20.8,17.5,32.4,16.3C139.5,624.6,136.5,619.2,132.9,619.5L132.9,619.5z"/>
				</g>
			</g>
		</g>
		<g>
			<path class="st2" d="M1961.1,956c-2.2,1.7-4.5,3.3-6.8,4.8c-5.2,3.5-10.4,6.8-15.7,10.2c-12.7,8.3-25.3,16.7-37.7,25.4
				c-14.3,9.9-28.9,19.3-43.4,28.7c-5.2,3.4-10.8,6-16.7,8c-1.7,0.6-3.6,1-5.4,1.4c-1.9,0.4-3.8,0.6-5.7,0.4
				c-1.1-0.1-2.3-0.3-3.4-0.6c-3.1-0.9-4.5-3.5-3.6-6.6c0.1-0.4,0.2-0.7,0.4-1c0.5-1.4,1.3-2.7,2.2-3.9c2.7-3.9,5.9-7.3,9.3-10.5
				c7.4-7.1,15.7-13.1,24.6-18.3c7.5-4.4,15.2-8.3,22.9-12.3c7.2-3.8,14.5-7.1,22-10.2c7.2-3,14.3-6,21.4-9.1
				c10.6-4.7,21.4-8.7,32.7-11.3c0.3-0.1,0.6-0.1,0.6-0.6c-0.4-0.4-0.9-0.7-1.5-0.9c-1.7-0.9-3.5-1.8-5.2-2.7
				c-7.2-3.8-14.4-7.4-21.8-10.8c-7.7-3.6-15.4-7-23.3-10.1c-2-0.8-2.1-0.8-4,0.2c-0.5,0.3-0.9,0.6-1.3,1c-1.3,1.2-2.6,2.4-4.1,3.5
				c-3.9,2.9-7.4,6.2-10.5,9.9c-3.4,4.1-6.6,8.2-9.8,12.5c-6.9,9-14.2,17.7-21.5,26.4c-4.8,5.7-10.1,10.9-15.7,15.8
				c-5.5,4.8-11.1,9.5-16.9,14c-4.1,3.2-8.3,6.4-12.6,9.3c-5,3.4-10.4,6.2-16.1,8.5c-2.3,0.9-4.6,1.7-7,2.2
				c-2.8,0.6-5.6,0.8-8.4,0.5c-1.3-0.1-2.6-0.4-3.8-1c-1.9-0.9-3.1-2.3-3.5-4.3c-0.2-0.8-0.2-1.7-0.2-2.5c0.1-1.7,0.5-3.3,1.3-4.8
				c0.9-1.8,2-3.5,3.2-5.1c3.5-4.7,7.5-8.9,11.7-12.9c7.1-6.7,14.6-12.9,22.3-18.8c9.4-7.1,18.5-14.5,27.3-22.3
				c5.1-4.5,10.5-8.8,16-12.8c11.3-8.2,23.4-15,36.8-19.3c2.7-0.9,5.5-1.7,8.3-2.2c0.2,0,0.4-0.2,0.7-0.3c-0.4-0.2-0.6-0.4-0.8-0.5
				c-6.6-2.6-13.2-5-19.9-7.2c-5.4-1.8-10.8-3.4-16.3-5c-5.6-1.6-11.2-3-16.8-4.4c-1.7-0.4-3.5-1-5.3-1c-0.8-0.7-1.5-0.1-2,0.4
				c-1.8,1.5-3.5,3-5.3,4.5c-0.5,0.5-1.1,1-1.6,1.4c-7.3,6.8-13.8,14.3-19.9,22.1c-2.6,3.3-5.1,6.7-7.8,10
				c-5.2,6.3-10.5,12.6-15.8,18.8c-6.6,7.9-13.1,16-19.9,23.7c-4.5,5.1-8.9,10.3-13.8,15.1c-6.2,6.2-12.9,11.8-20.2,16.6
				c-4.9,3.2-10.1,5.9-15.7,7.5c-1.8,0.5-3.6,0.9-5.4,1.2c-1.6,0.3-3.3,0.2-5-0.2c-3.3-0.8-5.5-3.2-5.7-6.6
				c-0.1-1.4,0.1-2.8,0.4-4.1c1.1-4.3,3-8.1,5.3-11.8c2.4-3.9,5.5-7.3,8.8-10.5c5.1-4.9,10.6-9.5,16.4-13.8
				c7.4-5.6,14.9-11.2,22.4-16.7c6.5-4.9,12.7-10.2,18.5-15.9c5.5-5.4,11-10.7,16.5-16c4.3-4.2,8.7-8.2,13.3-12.1
				c8.5-7.1,18.2-11.8,28.9-14.7c0.3-0.1,0.5-0.2,1-0.3c-0.7-0.5-1.3-0.5-1.9-0.6c-8.8-1.7-17.6-3.2-26.5-4.2
				c-5.4-0.6-10.8-1.1-16.1-1.7c-1.4-0.1-2.6,0.3-3.6,1.2c-0.3,0.3-0.6,0.5-0.9,0.8c-1.1,0.9-2.1,1.9-3.2,2.8
				c-6,4.6-11.7,9.5-17,14.9c-6.1,6.2-12.1,12.4-17.7,19.1c-3.9,4.7-7.5,9.5-11.2,14.3c-6.8,8.9-13.7,17.8-20.5,26.8
				c-4.5,6-9.4,11.8-14.8,17.1c-5.6,5.6-11.3,11-17.6,15.9c-2.7,2.2-5.6,4-8.7,5.5c-1.5,0.7-3.1,1.3-4.6,1.8
				c-2.3,0.7-4.6,0.7-6.9,0.2c-2.7-0.6-4.4-2.6-4.5-5.4c0-1,0-1.9,0.3-2.9c0.4-1.6,0.9-3.2,1.6-4.7c2.1-4.9,4.8-9.4,7.9-13.7
				c3.8-5.3,8.1-10.1,12.6-14.8c15.2-15.8,30.4-31.6,46-47c4.6-4.6,9.3-9.1,14.1-13.6c1.9-1.7,3.9-3.3,5.9-4.9
				c5.1-4,10.7-7,16.8-9.3c4.1-1.5,8.3-2.7,12.4-4.1c0.4-0.1,0.9-0.1,1.2-0.6c-0.2-0.1-0.2-0.2-0.3-0.2c-3.2-0.2-6.4-0.3-9.5-0.4
				c-0.4,0-0.7,0-1.1,0.1c-7.6,1.1-15.1,2.3-22.4,4.8c-0.7,0.2-1.4,0.4-2.1,0.6c-15.1,4.3-29.8,9.7-44.3,15.6
				c-9.1,3.7-18.2,7.5-27.3,11.1c-17.7,7-35.7,13-54.3,17.6c-7.3,1.8-14.6,3.1-22.1,3.6c-1.4,0.1-2.8,0.1-4.1,0
				c-0.8,0-1.7-0.2-2.5-0.4c-2.6-0.8-4-3.1-3.2-5.8c0.4-1.2,1-2.3,1.7-3.4c1.2-1.7,2.5-3.1,4-4.5c3.3-3,6.7-5.7,10.3-8.2
				c7.4-5.1,15.3-9.4,23.6-12.9c7.6-3.3,15.4-6,23.3-8.5c16.3-5.2,33-9,50.1-11c12.1-1.4,24.2-2.5,36.3-3.1
				c12.5-0.7,25-0.9,37.6-0.4c4.7,0.2,9.5,0.5,14.2,0.8c0.4,0,0.7,0,1.1,0c0.1,0,0.1-0.1,0.4-0.3c-1-0.5-2-0.8-3.1-1.1
				c-2.9-0.9-5.9-1.8-8.8-2.7c-6.8-2.3-13.6-4.7-20.2-7.5c-11-4.6-21.9-9.6-32.7-14.7c-5.4-2.5-10.7-5.1-16.1-7.6c-2-1-4-2-6-2.9
				c-4.3-2.1-8.6-4.2-12.8-6.3c-4.8-2.4-9.5-4.7-14.2-7.2c-4.4-2.3-8.7-4.7-13-7.2c-4.6-2.6-9.1-5.4-13.6-8.1
				c-1.3-0.8-2.5-1.7-3.7-2.6c-0.7-0.6-1.5-1.3-2-2.1c-1.2-1.6-0.9-3.4,0.8-4.5c0.6-0.4,1.3-0.7,1.9-0.9c0.8-0.2,1.6-0.4,2.5-0.5
				c1.5-0.1,3.1-0.2,4.7-0.3c5.1-0.1,10.2,0.7,15.2,1.7c6.6,1.3,13.2,2.8,19.7,4.6c4.6,1.3,9.2,2.6,13.6,4.3
				c11.9,4.4,23.5,9.6,34.6,15.8c5.8,3.2,11.5,6.7,17,10.5c8,5.4,15.7,11.1,23.3,17.1c7.2,5.6,14.5,11,22,16
				c3.9,2.6,7.9,5.2,11.4,8.4c0.6,0.5,1.3,0.6,2,0.7c2.4,0.3,4.9,0.6,7.3,0.9c11.4,1.6,22.8,3.8,34,6.4c0.3,0.1,0.5,0.1,1.2,0.1
				c-0.5-0.5-0.6-0.7-0.9-0.8c-4-2.5-8-5-12.1-7.4c-7.6-4.5-15-9.5-22.3-14.6c-7.4-5.1-14.8-10.3-22.3-15.3
				c-6.9-4.6-13.9-9.1-20.8-13.6c-11.1-7.2-21.8-15.1-31.8-23.8c-6.4-5.5-12.3-11.3-17.6-17.9c-2-2.5-3.9-5.1-5.5-7.9
				c-0.8-1.4-1.5-2.9-2.1-4.4c-0.5-1.3-0.8-2.6-0.7-4c0.1-2.2,1.2-3.6,3.2-4.3c1.1-0.4,2.2-0.5,3.4-0.3c1.7,0.2,3.3,0.5,4.9,0.9
				c5.7,1.6,11.1,4.1,16.2,7.2c5.4,3.3,10.6,7,15.7,10.9c10,7.7,19.6,15.8,29.1,24.1c9.1,7.9,18.2,15.6,27.2,23.6
				c8.9,7.9,17.7,15.9,26,24.4c4.1,4.1,8.1,8.4,12.3,12.4c5.6,5.3,11.4,10.5,17.1,15.8c0.6,0.6,1.3,0.8,2.1,1.1
				c4.1,1.3,8.3,2.6,12.4,4c6.5,2.1,12.9,4.5,19.2,7c7.1,2.8,14.2,5.9,21.3,8.8c1.9,0.8,3.8,1.7,5.8,2.6c0.3,0.1,0.6,0.4,1,0
				c-0.2-0.3-0.4-0.7-0.6-1c-2-2.6-3.9-5.2-6.1-7.7c-6.6-7.5-13.3-15-20-22.4c-9.2-10.2-18.5-20.2-27.6-30.4
				c-8-9-15.7-18.2-23.5-27.2c-7.7-8.9-15.5-17.7-23.2-26.6c-4.3-5-8.5-9.9-12.4-15.2c-1.6-2.2-3.1-4.3-4.3-6.7
				c-0.6-1.1-1-2.2-1.5-3.3c-0.3-0.9-0.5-1.9-0.4-2.8c0.1-1.4,0.9-2.3,2.2-2.7c0.7-0.2,1.5-0.2,2.3-0.2c1.5,0.1,3,0.5,4.4,1.1
				c3.6,1.4,7,3.2,10.3,5.2c4.6,2.8,8.9,6,13.2,9.4c11.9,9.4,22.6,20.1,32.5,31.7c7.3,8.6,14.1,17.6,20.8,26.7
				c9.3,12.6,17.9,25.7,25.2,39.5c3.1,5.9,6.2,11.8,8.7,17.9c2.1,5.2,4,10.5,5,16.1c0.2,1.4,0.9,2.2,2.1,2.7c2.2,1,4.4,2.1,6.5,3.2
				c4.7,2.4,9.4,4.7,14.1,7.2c5.7,3,11.4,6.1,17.1,9.3c5.5,3,10.9,6.1,16.2,9.3c6.1,3.5,53.8,32.8,59.8,36.5
				c6.6,4,13.2,8.1,19.8,12.3c7.9,5,15.8,10.1,23.9,14.9c1.7,1,3.4,2.2,5,3.3c0.5,0.4,1,0.8,1.5,1.3c0.5,0.6,0.3,1.3-0.6,1.5
				c-0.8,0.2-1.6,0.1-2.3-0.1c-1-0.3-2.1-0.7-3.1-1.1c-4.9-2-9.6-4.3-14.2-6.9c-6.4-3.7-12.6-7.6-18.9-11.5c-5-3-9.9-6-14.9-9.1
				c-4.6-2.7-50.9-31.2-55.5-33.8c-4.5-2.6-9-5.2-13.5-7.8c-4-2.3-8-4.5-12-6.7c-1.3-0.7-2.6-1.5-4.4-1.1
				C1962.7,954.6,1961.9,955.4,1961.1,956z M1759.3,918.9c-0.7,0.2-1.2,0.6-1.3,1.4c-0.6-0.1-0.8,0.4-1.1,0.7
				c-1.6,1.5-3.1,3.1-4.6,4.7c-2.2,2.3-4.3,4.6-6.4,6.9c-5.2,5.9-11,11.2-16.8,16.5c-8.9,8.1-17.7,16.2-26.5,24.3
				c-4.8,4.4-9.2,9.2-13.6,14.1c-4.1,4.7-8.4,9.2-13.1,13.4c-2.2,2-4.6,4-7,5.8c-1.1,0.8-2.2,1.6-3.3,2.4c-1.6,1.2-3.3,2.4-5,3.7
				c-0.2,0.3,0.1,0.7,0.3,1c0.4,0.6,0.9,1,1.6,1.2c0.7,0.2,1.4,0.3,2.1,0.4c1.4,0.1,2.8-0.1,4.1-0.6c1.7-0.6,3.3-1.3,4.9-2.1
				c2.6-1.3,5-2.9,7.4-4.7c11.2-8.4,21.1-18.2,29.6-29.4c4.4-5.7,8.5-11.6,13.2-17c4-4.7,7.9-9.5,11.6-14.4c2.6-3.4,5.3-6.9,8-10.3
				c4.2-5.3,8.7-10.2,13.3-15c0.5-0.5,0.8-1,1.3-1.5C1758.6,920,1759,919.5,1759.3,918.9c0.3-0.2,0.5-0.5,0.5-0.8c0.1,0,0.2,0,0.3,0
				c-0.1,0-0.2,0-0.3,0C1759.7,918.4,1759.5,918.7,1759.3,918.9z M1761.1,916.8c0,0,0-0.1,0-0.1c0,0,0.1-0.1,0.1-0.1
				c0,0,0.1-0.1,0.1-0.1c0,0,0,0.1,0.1,0.1c-0.1,0-0.1,0-0.2,0C1761.1,916.7,1761.1,916.8,1761.1,916.8z M1941.9,965.4
				c-0.6,0-0.6,0-1.1,0.6c-0.5-0.2-0.9,0.2-1.3,0.4c-2.3,1.2-4.6,2.5-6.9,3.8c-9.1,4.9-18.3,9.7-27.3,14.7
				c-12.2,6.7-24.5,13.2-36.4,20.4c-1.1,0.7-2.3,1.3-3.4,2.1c-7.4,4.9-15,9.6-22.3,14.7c-1.8,1.3-3.7,2.5-5.6,3.8
				c-2.3,1.6-4.5,3.3-6.7,5c-0.2,0.1-0.3,0.3-0.6,0.7c0.5,0.1,0.9,0.2,1.2,0.2c2.1,0,4.2-0.4,6.2-0.9c6.3-1.7,12.2-4.3,17.7-7.8
				c2.2-1.4,4.4-2.9,6.6-4.3c11.1-7.3,22.2-14.4,33.1-22c7.4-5.1,14.9-10.3,22.4-15.3c7.3-4.8,14.6-9.5,22-14.3
				c0.5-0.3,1.1-0.5,1.3-1.1C1941.2,966.1,1941.5,965.7,1941.9,965.4z M1734.9,896.3c0,0,0.1-0.1,0.2-0.2c0,0-0.1-0.1-0.1-0.1
				c-0.1,0-0.2,0.1-0.3,0.1c-0.5,0-1.1-0.1-1.6-0.1c-14.2,0.7-28.5,1.6-42.6,3.3c-14,1.6-27.7,4.6-41.2,8.7
				c-7.5,2.2-14.9,4.6-22.2,7.5c-9.3,3.7-18.1,8.2-26.3,13.9c-3.4,2.4-6.6,4.9-9.5,7.8c-1.5,1.4-2.8,2.9-3.8,4.7
				c-0.3,0.6-0.7,1.1-0.5,1.9c0.3,0,0.5,0,0.7,0c1.2-0.3,2.3-0.7,3.5-0.9c6.5-1.3,12.7-3.5,18.5-6.5c6-3,11.9-6.2,17.9-9.3
				c3.6-1.9,7.2-4,10.8-5.9c8.9-4.8,18.3-8.3,28-11.3c9.7-2.9,19.5-5,29.6-6.4c3.5-0.5,7-0.9,10.5-1.5c3.8-0.6,7.5-1.3,11.3-2.1
				c5.2-1,10.4-2.1,15.6-3.2c0.5-0.1,1.1,0,1.3-0.6C1734.8,896.2,1734.8,896.2,1734.9,896.3z M1878.1,935.7
				c-3.3,1.9-6.7,3.7-9.9,5.6c-9.7,6-18.7,12.9-27.3,20.3c-5.5,4.8-11,9.6-16.8,14c-4.1,3.1-8.3,6.2-12.4,9.3
				c-7.2,5.4-14.2,11-20.9,17c-4.4,3.9-8.5,8.1-12.1,12.8c-0.7,0.9-1.4,1.8-2,2.8c-0.6,1.1-1.1,2.2-1.5,3.4
				c-0.2,0.6-0.3,1.3-0.3,1.9c0,1.3,0.7,2.3,1.9,2.8c0.5,0.2,0.9,0.3,1.4,0.4c1,0.2,1.9,0.2,2.6-0.6c0.4-0.4,0.9-0.7,1.4-1.1
				c5.5-3.6,11.1-7.2,16.6-10.9c5-3.4,10-6.8,15.1-10.2c7.9-5.4,15-11.6,21.7-18.4c5.9-6,11.3-12.5,16.5-19.1
				c4-5.1,7.9-10.3,11.9-15.3c4.3-5.5,9.2-10.3,14.8-14.4c0.3-0.3,0.6-0.5,1-0.8c0-0.1-0.1-0.2-0.1-0.4
				C1879.2,935.2,1878.6,935.4,1878.1,935.7z M1752.3,895.8c-2.4,0.4-4.7,0.8-7.1,1.2c-7.7,1.2-15.2,3-22.8,4.9
				c-8.9,2.2-17.9,3.7-27,4.8c-4.2,0.5-8.4,1-12.6,1.6c-8.1,1.2-16.1,3.2-23.8,5.7c-7.7,2.5-14.9,5.9-21.9,9.9
				c-7.2,4.1-14.3,8.3-21.7,12c-4.2,2.1-8.4,4.2-12.9,5.7c-2.3,0.8-4.7,1.5-7,2.2c-0.4,0.1-0.9,0.1-1.3,0.6c0.7,0.3,1.3,0.1,1.8,0.1
				c5.6-0.2,11.2-1,16.7-2c10.6-2,21.1-4.8,31.3-8.2c10.5-3.5,21-7.2,31.3-11.3c8.4-3.3,16.7-6.7,25.1-10c8.2-3.2,16.5-6.2,24.9-9
				c3.5-1.2,7-2.2,10.5-3.2c3-0.9,6.1-1.8,9.1-2.6c2.5-0.7,5-1.3,7.4-2c0.6-0.2,1.2-0.3,1.9-0.5c0-0.1-0.1-0.2-0.1-0.3
				C1753.5,895.6,1752.9,895.7,1752.3,895.8z M1644.5,818.6c4,0.4,7.9,1.3,11.8,2.4c2.4,0.7,4.9,1.4,7.3,2.2
				c5.9,1.9,11.5,4.4,17.1,7c6.5,3.1,12.8,6.6,19,10.3c5.1,3,10.1,5.9,15.2,8.8c4.2,2.5,8.4,5,12.7,7.4c3.3,1.9,6.7,3.7,10,5.5
				c3.9,2,7.8,4,11.6,5.9c2.4,1.2,4.9,2.4,7.4,3.5c6.2,2.8,12.2,6.1,18.2,9.5c4.5,2.6,9,5.2,13.5,7.9c1.7,1,3.4,1.9,5.2,2.4
				c1,0.3,1.9,0.7,2.9,1.1c1.2,0.5,2.5,0.7,3.9,0.7c0-0.6-0.4-0.8-0.7-1c-1.4-0.9-2.8-1.7-4.2-2.5c-9.3-5.4-18-11.6-26.4-18.3
				c-7.8-6.2-15.8-12.1-24-17.7c-5.4-3.7-11-7.1-16.7-10.3c-5.7-3.2-11.5-6.2-17.5-8.8c-3.7-1.7-7.4-3.3-11.1-4.9
				c-7.7-3.2-15.6-5.7-23.7-7.7c-6.3-1.6-12.7-3-19.1-3.9c-3.8-0.5-7.5-0.7-11.3-0.3c-0.7,0.1-1.4,0-2.2,0.6
				C1643.9,818.5,1644.2,818.6,1644.5,818.6z M1822.9,915.4c-1.7,1.4-3.3,2.7-5,4.1c-4,3.3-8,6.5-12.1,9.7
				c-5.2,4.1-10.1,8.7-14.1,14c-1.8,2.4-3.5,4.8-5.2,7.2c-9.1,12.7-19.7,23.9-31.8,33.7c-7.8,6.4-15.8,12.4-23.8,18.5
				c-6.6,5-13.2,9.9-20.2,14.4c-1.7,1.1-3.3,2.3-5,3.5c0,1,0.6,1.5,1.3,1.9c0.7,0.3,1.5,0.6,2.2,0.7c1.5,0.3,3,0.1,4.5-0.2
				c3.7-0.7,7.2-2,10.7-3.5c4.9-2.3,9.5-5.2,13.9-8.3c8.3-6,15.6-13,22.4-20.5c9.3-10.3,18.2-20.9,27-31.5
				c5.4-6.5,10.8-13,16.1-19.5c2.3-2.9,4.4-5.9,6.7-8.8c4-5,8.1-9.8,12.5-14.4c0.5-0.5,0.9-1,1.4-1.6c-0.1-0.1-0.1-0.2-0.2-0.3
				C1823.9,914.7,1823.4,915.1,1822.9,915.4z M1771.6,903.1c-3.4,1.4-6.8,2.8-10.2,4.3c-5.5,2.5-10.5,5.8-15.1,9.7
				c-4.6,3.9-8.9,8.2-13.2,12.4c-12.3,12.2-24.5,24.4-36.8,36.5c-5.7,5.7-11.6,11.3-17.3,16.9c-4.4,4.3-8.4,8.9-11.8,14
				c-2.3,3.5-4.3,7.1-5.8,11c-0.2,0.6-0.4,1.2-0.6,1.9c-0.1,0.3,0,0.6,0,1c0.4-0.2,0.7-0.3,0.9-0.5c8.9-6.2,16.7-13.5,23.6-21.8
				c3.9-4.7,7.7-9.3,11.9-13.7c3.2-3.3,6.5-6.5,9.9-9.5c4.3-3.9,8.7-7.8,13-11.7c2.7-2.5,5.4-4.9,8.2-7.4c4.2-3.7,8-7.6,11.6-11.8
				c7.3-8.6,15.2-16.7,23.6-24.2c2.5-2.3,5.1-4.4,7.9-6.4c0.4-0.3,0.7-0.6,1.1-0.9c-0.1-0.1-0.1-0.2-0.2-0.3
				C1772,903,1771.8,903,1771.6,903.1z M1920.2,909.8c-6.2-8.8-11.6-18.1-17.2-27.2c-1.5-2.5-2.9-5-4.3-7.6
				c-2.9-5.3-6.3-10.3-10.1-15.1c-2.2-2.8-4.7-5.3-7.5-7.6c-6.9-5.5-13.6-11.1-19.9-17.2c-3.1-3-6-6.2-8.9-9.4
				c-6.6-7.2-13.2-14.4-20-21.4c-3.6-3.8-7.4-7.3-11.2-10.9c-1.7-1.6-3.6-3.2-5.4-4.8c-0.2-0.2-0.4-0.2-0.8-0.5
				c0.1,0.5,0.1,0.8,0.3,1.1c0.6,1.2,1.2,2.5,2,3.7c1.8,3.1,4,6,6.2,8.7c5.4,6.8,10.9,13.3,16.6,19.7c13.6,15.5,27.2,31.1,40.9,46.5
				c8.2,9.2,16.7,18.1,25,27.1c4.7,5,9.4,10,13.8,15.2c0.5,0.5,1,1.1,1.5,1.6c0.1-0.1,0.2-0.1,0.3-0.2
				C1921,911.1,1920.6,910.4,1920.2,909.8z M1706.2,1018.7c6.1-4.5,12.3-9,18.4-13.6c10.3-7.7,20.5-15.4,30.4-23.7
				c9.4-7.8,18-16.4,25.5-26c2.5-3.2,4.9-6.6,7.3-9.9c4.6-6.4,9.8-12.1,15.8-17c5.3-4.4,10.5-8.9,15.6-13.5c0.4-0.4,0.8-0.8,1.3-1.3
				c-0.6-0.3-0.9,0-1.2,0.2c-4.3,2.4-8.5,5.1-12.2,8.3c-3.3,2.9-6.6,5.8-9.8,8.8c-6.8,6.3-13.4,12.8-20.1,19.2
				c-6.7,6.5-13.9,12.4-21.4,18c-8.3,6.1-16.5,12.3-24.7,18.5c-4.6,3.5-9,7.2-13.2,11.2c-2.6,2.5-5,5.2-7.1,8.2
				c-1.9,2.8-3.4,5.7-4.5,8.9c-0.4,1.2-0.8,2.5-0.7,4.2C1706,1018.9,1706.1,1018.8,1706.2,1018.7z M1860.7,903.1
				c-7.7-6.2-15-13-21.8-20.3c-9-9.5-18.5-18.4-28.3-27c-14.1-12.4-28.4-24.8-42.6-37.1c-6.4-5.5-13-10.7-19.8-15.7
				c-4.1-3-8.3-5.8-12.9-8.1c-4.2-2.1-8.5-4-13.2-4.9c-1.1-0.2-2.1-0.3-3.2,0c-0.4,0.1-0.8,0.2-0.9,0.8c0.1,0.1,0.3,0.3,0.5,0.4
				c6.5,3,12.5,6.8,18.3,11.1c6.6,4.9,12.8,10.4,18.8,16c13,12.1,26.3,23.8,40.2,34.9c5.2,4.2,10.6,8.1,15.9,12.1
				c6.8,5,13.6,10.2,20.2,15.4c5,4,10,8.1,14.7,12.4c2.4,2.2,5,4.2,7.5,6.3c1.5,1.2,3,2.5,4.5,3.7c0.9,0.8,1.9,1.3,3.4,1.2
				C1861.5,903.8,1861.1,903.4,1860.7,903.1z M1844.1,893.1c-4.8-4.8-10.1-9.1-15.4-13.3c-6.2-4.9-12.6-9.6-19.2-14.1
				c-12.7-8.7-25-17.9-37.3-27.1c-8.4-6.3-16.2-13.3-23.7-20.6c-5.6-5.5-11.4-10.9-17.6-15.8c-4.1-3.3-8.3-6.4-12.7-9.1
				c-0.2-0.1-0.4-0.2-0.6-0.3c-0.5,0.2-0.4,0.5-0.3,0.8c0.4,1.1,0.7,2.2,1.2,3.2c1,2.2,2.4,4.2,3.8,6.2c4.3,5.9,9.2,11.3,14.5,16.3
				c10.7,9.9,22,19,34.1,27c6.3,4.2,12.7,8.1,19.1,12.2c7.9,5,15.8,10.1,23.6,15.3c9.2,6.3,18.4,12.5,27.8,18.5
				c0.8,0.5,1.5,1,2.3,1.5c0.4,0.2,0.7,0.4,1.1,0.6c0.1-0.1,0.1-0.2,0.2-0.3C1844.7,893.7,1844.4,893.4,1844.1,893.1z M1822.6,788.6
				c6.1,4.5,11.6,9.6,16.1,15.6c4,5.4,8.2,10.7,12.1,16.1c6.3,8.7,13.7,16.3,21.9,23.2c3,2.5,6,5.1,9.1,7.6c2.6,2.1,4.9,4.3,6.9,6.9
				c3.9,4.9,7.6,9.9,10.8,15.3c5.9,9.9,12.3,19.5,19,28.8c2.3,3.3,4.5,6.6,6.8,9.9c0.1,0.2,0.3,0.4,0.4,0.5c0.3-0.4,0-0.6-0.1-0.8
				c-1.4-2.8-2.7-5.7-4.1-8.5c-7-13.7-15.1-26.7-24.1-39.1c-6.4-8.9-12.9-17.8-19.7-26.4c-10.3-13.1-21.9-25.1-34.8-35.8
				c-4.2-3.4-8.4-6.8-13-9.7c-2.5-1.5-5-2.9-7.5-4.4c-0.3-0.2-0.7-0.3-1-0.4c-0.1,0.1-0.1,0.1-0.2,0.2
				C1821.9,788,1822.3,788.3,1822.6,788.6z M1643.9,822.1c2.6,1.7,5.1,3.5,7.7,5.1c5.6,3.4,11.2,6.7,16.8,10c5,2.9,10,5.6,15.2,8.1
				c6.7,3.2,13.4,6.5,20.1,9.7c5.5,2.6,11.1,5,16.7,7.5c10.2,4.6,20.5,8.8,30.9,13c6.1,2.5,12.2,4.9,18.3,7.3c2.6,1.1,5.3,2,8,2.9
				c0.4,0.1,0.8,0.2,1.2,0.3c0.3-0.4,0-0.5-0.2-0.6c-3.1-1.7-6.2-3.4-9.4-5.1c-8.5-4.6-17.5-8.1-26.4-12.1
				c-5.8-2.6-11.5-5.3-17.2-8.2c-5.5-2.9-11.1-5.7-16.6-8.6c-5.1-2.7-10.2-5.6-15.2-8.4c-3.4-1.9-6.7-3.8-10.2-5.6
				c-3.9-2-7.9-4-11.8-5.9c-4.7-2.2-9.5-4.2-14.4-5.9c-2.7-0.9-5.3-1.9-8-2.8c-2.2-0.7-4.4-1.3-6.6-2c-0.1,0.1-0.1,0.2-0.2,0.4
				C1643.1,821.5,1643.5,821.9,1643.9,822.1z M1939,962.1c-5,2.1-10,4.3-14.9,6.4c-5.4,2.3-10.7,4.7-16.1,6.9
				c-9,3.7-17.8,7.7-26.4,12.3c-6.7,3.5-13.4,7-20,10.6c-7.5,4.1-14.6,8.9-21.1,14.6c-4.2,3.7-8.2,7.6-11.6,12
				c-0.7,0.9-1.3,1.8-1.9,2.8c-0.3,0.4-0.4,0.9-0.6,1.3c-0.2,0.7-0.1,1.3,0.4,1.6c0.7,0.5,1.2,0.4,1.8-0.1c6-4.9,12.3-9.5,18.7-13.9
				c8-5.5,15.9-11.1,24.2-16c7.7-4.6,15.3-9.1,23.1-13.5c8.2-4.6,16.4-9.1,24.7-13.6c7-3.9,14-7.8,21.3-11.3
				c0.3-0.2,0.6-0.3,0.9-0.5c-0.1-0.1-0.1-0.2-0.1-0.3C1940.5,961.5,1939.7,961.8,1939,962.1z M1785.2,1026c4-0.4,7.7-1.5,11.4-3
				c5-2,9.7-4.6,14.1-7.7c3.9-2.8,7.7-5.6,11.4-8.6c6.1-4.8,12-9.9,17.7-15.1c5.3-4.7,10.1-9.9,14.7-15.3
				c7.3-8.6,14.5-17.3,21.4-26.2c2.7-3.5,5.4-7.1,8.2-10.5c1.4-1.8,3-3.4,4.5-5.1c0.3-0.3,0.7-0.6,0.9-1.2c-0.7,0-1.2,0.5-1.7,0.7
				c-6,3.5-11.3,7.9-16,12.9c-3.3,3.5-6.2,7.3-9.1,11.2c-5.6,7.4-11.3,14.6-17.5,21.4c-5.2,5.7-10.7,11-16.4,16
				c-3.5,3.1-7.2,5.8-11.1,8.4c-7.2,4.9-14.6,9.6-22.1,14.1c-3.9,2.3-7.7,4.7-11.5,7.1c-0.3,0.2-0.6,0.4-1,0.8
				C1783.9,1026.3,1784.6,1026.1,1785.2,1026z"/>
		</g>
		<path class="st3" d="M765.2-61.1C790,47.7,850.5,141.4,925.5,187.3c75,45.8,163.1,42.9,233.3-7.9
			c53.5-38.6,95.1-101.5,143.3-151.5c62.9-65.3,137.7-108.6,216.3-125.1"/>
		<path class="st3" d="M1371.8,1282.5c-33-81-66.5-162.9-107-232.7c-40.5-69.8-89.4-127.3-136.3-141.8c-59.1-18.3-105,33.2-161,35.6
			c-68.9,3-156-66.5-206.4-4.6c-45.5,56-38.6,192.9-28.8,314.1"/>
		<g>
			<g>
				<g>
					<g>
						<path class="st4" d="M227.4,236.1c24-0.9,48.5,2.2,72.1-3.1c11.6-2.6,22.5-7.3,33.7-11.4c5.6-2,11.3-4,16.7-6.4
							c5-2.2,9.9-4.6,14.7-7.2c19.2-10.2,36.7-23.5,49.5-41.3c6.3-8.9,11.8-18.4,16.9-28.1c4.6-8.8,8.8-18.3,15.9-25.4
							c3.9-3.9,8.5-6.7,13.6-8.8c5.1-2,10.7-3.6,16.2-3.3c5.8,0.3,11.5,2.1,17.3,2.9c5.8,0.8,11.3,3.1,17,4.5
							c5,1.2,10.5,2.2,14.5,5.6c3.1,2.7,3.3,6.4,3.1,10.2c-0.4,5.9,0.7,11.7,1.4,17.5c0.8,6,1.7,12,2.2,18
							c0.5,6.1,0.6,12.3-0.7,18.3c-0.7,2.9-1.6,5.8-2.5,8.7c-0.8,2.5-1.5,5.1-2.5,7.5c-1.5,3.6-3.8,6.3-7.3,8.1
							c-3.9,2-8.3,3.2-12.6,4c-5.1,1-10.2,1.6-15.1,3.3c-4.4,1.5-7.7,4.2-10.5,7.9c-3.1,4.1-5.7,8.3-9.5,11.9
							c-4.2,4-8.9,7.2-13.5,10.6c-4.3,3.1-8.5,6.4-13.4,8.7c-5.1,2.4-10.7,2.9-16.3,3.1c-11.4,0.3-22.7-1.8-33.7-4.6
							c-5.2-1.3-10.2-3-15.4-4.3c-4.8-1.2-9.9-1.8-14.2-4.3c-2-1.1-3.4-2.7-5-4.2c-1.8-1.7-4.1-2.4-6.4-3.1
							c-2.9-0.9-5.9-1.7-8.9-2.5c-2.9-0.8-5.8-1.8-8.8-2.5c-2.7-0.6-5.6-1-8.3-0.8c-2.9,0.1-5.9,0.8-8.7-0.5
							c-0.6-0.3-1.8,1.4-1.5,1.6c2.7,1.2,5.5,0.7,8.3,0.6c3-0.2,6,0.1,8.9,0.8c2.9,0.7,5.8,1.7,8.7,2.5c3.1,0.8,6.1,1.7,9.2,2.6
							c2.5,0.8,4.7,1.7,6.6,3.6c1.7,1.7,3.3,3.1,5.5,4.2c4.4,2.1,9.3,2.8,13.9,3.9c5.3,1.4,10.5,3.1,15.8,4.4
							c5.7,1.4,11.5,2.6,17.3,3.4c5.7,0.8,11.4,1.1,17.2,0.9c5.2-0.3,10.3-0.9,15.1-3.2c4.7-2.3,8.9-5.5,13.1-8.5
							c4.5-3.3,9.1-6.5,13.3-10.2c3.9-3.5,7-7.4,9.9-11.6c1.4-2.1,2.9-4.1,4.8-5.8c2.1-1.8,4.7-2.7,7.3-3.4c9-2.6,18.8-2.6,27.1-7.4
							c3-1.7,5.4-4.2,7.2-7.2c1.1-1.8,1.8-3.8,2.4-5.8c0.9-2.9,1.9-5.8,2.8-8.7c1.7-5.8,2.4-11.5,2.2-17.5c-0.2-6.1-1-12.2-1.8-18.3
							c-0.8-5.9-1.9-11.9-2.1-17.9c-0.2-4.1,1-8.7-1-12.5c-2.1-4.1-7.2-5.8-11.4-7c-2.6-0.7-5.2-1.3-7.8-1.9
							c-2.9-0.7-5.8-1.7-8.7-2.6c-2.9-0.9-5.9-1.2-8.9-1.7c-3-0.5-5.9-1.2-8.9-1.8c-2.9-0.5-5.9-0.9-8.9-0.7c-2.5,0.2-5,0.7-7.4,1.4
							c-10,2.8-18.6,8.3-25,16.6c-6.1,8-10.1,17.2-14.9,26c-5.6,10-11.3,20.1-18.6,29c-7.3,9-16.1,16.6-25.5,23.2
							c-9.2,6.4-19.2,11.8-29.3,16.6c-5.6,2.6-11.4,4.8-17.2,6.8c-5.8,2.1-11.5,4.3-17.2,6.4c-5.6,2.1-11.3,4-17.2,5.4
							c-6.1,1.5-12.2,2.3-18.5,2.8c-12.3,1-24.6,0.6-37,0.5c-6.1-0.1-12.1-0.1-18.2,0.2C228.2,234.5,227.1,236.1,227.4,236.1
							L227.4,236.1z"/>
					</g>
				</g>
				<g>
					<g>
						<path class="st4" d="M348.8,232c6.1,3,12.1,7.4,14.4,14.2c1.9,5.6,1.2,11.6,0.1,17.2c-1.2,6.8-2.9,13.4-3.5,20.3
							c-0.7,7.5-0.1,15.1,2.6,22.1c1.8,4.6,4.3,9,6.3,13.5c2.3,5.1,4.4,10.3,6.6,15.4c2,4.7,4,9.6,6.7,14.1c2.2,3.7,5.2,7,8.7,9.5
							c1.8,1.3,3.8,2.4,5.9,3.3c1.9,0.8,4,1.2,6,2.1c3.3,1.5,5.9,4,8.1,6.8c2.1,2.6,4.1,5.3,6.6,7.5c3.5,3,7.7,4,12,5.2
							c11.3,3.1,22.9,5.6,34.3,8.5c5.4,1.4,10.7,2.8,15.9,4.6c4.6,1.6,9.3,3.4,14.2,4.1c4.2,0.6,8.6,0.1,12.7-0.8
							c3.7-0.9,7.7-2.2,10.5-5c3.6-3.6,6.9-7.6,9.5-12c2.5-4,4.1-8.3,3.8-13.1c-0.3-4.8-2.1-9.3-3.7-13.8c-0.8-2.4-1.5-4.9-2.4-7.3
							c-0.9-2.6-1.9-5.1-3-7.6c-2-4.9-4.5-9.8-5.9-14.9c-1.2-4.3-0.8-9.1-2.9-13.2c-2.1-4.1-5.8-7.5-9.5-10.1c-1.9-1.3-4-2-6-3.1
							c-2.2-1.2-3.7-3.2-4.9-5.3c-1.1-2.1-1.8-4.3-2.7-6.4c-0.8-2-1.9-3.9-3.2-5.6c-2.7-3.4-6.2-6.3-9.9-8.4
							c-4.3-2.4-9.3-3.7-14-5.1c-5.4-1.6-10.9-2.5-16.5-3c-5.8-0.5-11.6-0.8-17.3-1.4c-5.7-0.6-11.4-1.6-17-3
							c-5.6-1.4-11.2-3-16.7-4.7c-5-1.5-10.1-2.8-15-4.8c-5-2.1-9.3-5.2-13.4-8.7c-4-3.4-8.1-6.7-12-10.1c-1.7-1.5-3.6-2.7-5.8-3.5
							c-2.5-0.9-5.2-1.4-7.7-2.2c-0.8-0.2-1.6,1.8-0.9,2c2.6,0.7,5.2,1.3,7.7,2.2c2.4,0.8,4.3,2.1,6.2,3.8c1.8,1.6,3.7,3.1,5.6,4.7
							c2.1,1.8,4.2,3.6,6.3,5.4c4,3.4,8.2,6.4,13.1,8.4c4.7,2,9.7,3.2,14.6,4.7c10.8,3.2,21.6,6.3,32.7,7.7c11.4,1.3,23,1,34,4.2
							c2.6,0.8,5.3,1.6,7.9,2.5c2.1,0.7,4.2,1.3,6.1,2.3c4,2,7.6,4.9,10.5,8.3c1.4,1.7,2.5,3.5,3.4,5.5c0.9,2,1.6,4.1,2.5,6.1
							c1,2.1,2.3,4,4.1,5.4c1.7,1.4,3.9,2.1,5.8,3.2c4,2.3,7.7,5.7,10.2,9.6c2.6,4.1,2.2,8.9,3.3,13.5c0.6,2.5,1.6,4.9,2.5,7.2
							c1,2.5,2,4.9,3.1,7.3c1,2.4,2,4.9,3,7.4c0.9,2.4,1.6,4.8,2.4,7.2c1.5,4.5,3.4,8.8,4,13.5c0.3,2.4,0.2,4.9-0.5,7.2
							c-0.8,2.4-2.1,4.6-3.5,6.7c-1.5,2.2-3.1,4.2-4.8,6.2c-1.5,1.7-2.9,3.6-4.7,4.9c-3.4,2.4-7.7,3.3-11.7,3.9
							c-4.5,0.7-8.8,0.4-13.3-0.8c-4.8-1.3-9.4-3.2-14.1-4.7c-10.9-3.4-22.2-5.7-33.3-8.4c-5.7-1.4-11.3-2.8-16.9-4.5
							c-3.8-1.1-7-2.9-9.7-5.9c-2.3-2.4-4.1-5.2-6.4-7.7c-2.5-2.7-5.4-4.6-8.9-5.6c-4.2-1.2-8.1-3.2-11.4-6.1c-3.4-3-6-6.7-8-10.7
							c-4.9-9.7-8.6-20-13.2-29.9c-2-4.2-4.3-8.3-5.7-12.7c-1.1-3.6-1.7-7.4-1.9-11.2c-0.3-7,1-13.8,2.3-20.6
							c1.2-6,2.7-12.2,2.4-18.3c-0.3-5.8-2.5-11.1-6.7-15.1c-2.7-2.5-5.9-4.5-9.2-6.1C349.1,229.7,348.1,231.7,348.8,232L348.8,232z
							"/>
					</g>
				</g>
				<g>
					<g>
						<path class="st4" d="M523.5,350c4,1.2,8.1,1.8,12.3,1.3c2.2-0.3,4.4-0.7,6.5-1.6c1.7-0.7,3.3-1.8,4.9-2.9
							c1.8-1.2,3.5-2.5,5.3-3.6c1.9-1.1,3.8-2.1,5.7-3.1c3.8-2.1,7.5-4.5,10.2-8c2.7-3.4,4.5-7.5,6.8-11.2c2.5-4.1,4.6-8.4,6.4-12.8
							c1.7-4.3,3.3-8.7,4.6-13.2c0.9-3.2,1.2-6.3-0.2-9.4c-0.9-1.9-2.1-3.6-3.2-5.3c-1.3-1.9-2.5-3.8-3.9-5.6
							c-2.4-3.2-5.5-5.9-6.9-9.7c-2.6-7-1.5-14.7-3.2-21.8c-0.4-1.7-0.9-3.5-1.9-5.1c-0.9-1.5-2.2-2.8-3.6-3.9
							c-3-2.3-6.7-3.9-10.2-5.2c-4.6-1.7-9.4-2.7-14.2-3.5c-4.9-0.7-9.8-1.1-14.7-1c-9.7,0.4-19.2,2.6-28.7,4.6
							c-2.4,0.5-4.7,1-7.1,1.4c-1.1,0.2-2.1,0.3-3.2,0.6c-1.1,0.2-2.1,0.6-3.2,0.9c-2.3,0.6-4.3-0.3-6.5-0.7c-2-0.4-4.2-0.4-6.2-0.6
							c-1.9-0.1-3.8-0.1-5.7,0.3c-0.5,0.1-0.5,0.9-0.3,1.3c0.6,1.5,1.8,2.1,3.4,1.9c1.1-0.2,0.6-2.2-0.4-2.1
							c-0.5,0.1-1.3,0.2-1.5-0.4c-0.1,0.4-0.2,0.9-0.3,1.3c1.9-0.5,4-0.4,6-0.2c2,0.2,4.2,0.2,6.1,0.7c2,0.5,3.9,1,6,0.5
							c0.8-0.2,1.7-0.5,2.5-0.7c1.2-0.3,2.3-0.5,3.5-0.7c9.3-1.6,18.4-4,27.7-5.3c9.4-1.2,18.8-0.8,28,1.2c4.4,0.9,8.6,2.3,12.7,4.1
							c3.1,1.4,6.7,3.3,8.6,6.3c1.8,2.9,2.2,6.9,2.5,10.2c0.4,3.6,0.5,7.2,1,10.8c0.5,3.4,1.5,6.7,3.5,9.6c1.1,1.6,2.5,3,3.8,4.5
							c1.4,1.7,2.7,3.5,3.9,5.4c1.9,2.9,4.8,6.1,5.1,9.7c0.1,1.6-0.3,3.2-0.7,4.7c-0.6,2.2-1.4,4.4-2.1,6.6
							c-1.5,4.3-3.1,8.5-5.1,12.5c-2,4-4.4,7.8-6.6,11.7c-2.1,3.8-4.4,7.2-7.9,9.9c-3.5,2.7-7.4,4.5-11.2,6.7
							c-3.4,2-6.3,4.7-9.9,6.3c-3.6,1.6-8.1,2.1-12.1,1.8c-2.1-0.2-4.1-0.7-6.1-1.3C522.3,347.6,522.5,349.7,523.5,350L523.5,350z"
							/>
					</g>
				</g>
				<g>
					<g>
						<path class="st4" d="M568.8,255c2.8,0.9,5.6,2.3,8.5,2.7c2.5,0.3,4.7-0.7,6.6-2.2c4-3.3,6.9-8.2,9.1-12.8
							c2.6-5.2,4.6-10.8,5-16.6c0.4-5.4-0.9-10.4-4.3-14.7c-1.6-2-3.4-3.8-5.2-5.6c-2.2-2.3-4.3-4.7-6.2-7.3
							c-1.9-2.6-3.7-5.2-5.2-8.1c-1.4-2.6-2.3-5.2-2.9-8.1c-0.9-4.3-1.4-9.9-5.3-12.6c-3.7-2.6-8.6-3.4-12.9-4.1
							c-3.5-0.6-7-0.3-10.5-0.2c-3.4,0.1-6.8-0.2-10.1-0.6c-6.9-0.9-13.8-2.3-20.7-3c-12.7-1.2-25.4-0.1-37.6,3.6
							c-22.5,6.8-41.7,21-61.9,32.5c-5.1,2.9-10.4,5.6-15.8,8.1c-5.3,2.4-10.2,5.4-15.1,8.4c-4.8,3-9.9,6-15.4,7.3
							c-3.2,0.8-6.4,0.5-9.6,0c-3.3-0.4-6.5-0.5-9.8-0.6c-3-0.1-5.9-0.5-8.8-1.3c-0.2-0.1-0.3,2,0.2,2.2c6.1,1.6,12.4,1.1,18.6,1.9
							c3.1,0.4,6.2,0.7,9.3,0c2.6-0.6,5.1-1.6,7.6-2.8c5.2-2.5,9.9-5.8,14.8-8.7c4.8-2.9,10.1-4.9,15.1-7.5
							c20.3-10.2,38.6-24.3,59.6-33.2c11-4.7,22.8-7.7,34.7-8.2c6.3-0.3,12.7,0.1,19,0.9c6.7,0.9,13.3,2.4,20.1,2.9
							c3.4,0.3,6.7,0.1,10.1,0c2.9-0.1,5.7,0.1,8.5,0.7c2.4,0.5,4.9,1,7.2,1.9c2,0.7,4.2,1.7,5.4,3.4c1.5,2.1,2,4.8,2.5,7.3
							c0.5,2.4,0.9,4.9,1.7,7.3c1.9,5.5,5.7,10.7,9.4,15.1c3.4,4.2,7.8,7.6,10.7,12.2c1.6,2.5,2.4,5.2,2.3,8.2c0,3-0.7,5.9-1.5,8.7
							c-1.7,5.6-4.3,10.9-7.7,15.7c-2.7,3.8-6.4,8.4-11.6,7.5c-2.8-0.5-5.4-1.8-8.1-2.6C568.3,252.8,568.2,254.9,568.8,255
							L568.8,255z"/>
					</g>
				</g>
				<g>
					<g>
						<path class="st4" d="M230.7,233c-5.1-2-10.5-1.5-15.8-2.7c-5.3-1.3-10.5-2.8-15.9-3.7c-11.3-1.8-22.4-4.9-33.4-8.3
							c-11-3.4-21.8-7.2-32.9-10.4c-11.4-3.4-22.9-6.7-34.3-10.1c-11.4-3.4-22.9-6.8-34.3-10.2c-11.3-3.4-22.7-5.7-34.4-7.6
							c-11.4-1.8-23-3.4-34.2-6.8c-4.9-1.5-9.7-3.5-14.6-4.9c-2.3-0.7-4.7-1.3-7.1-1.7c-2.7-0.4-5.4-0.4-8.1-0.7
							c-11.5-1.2-22.9-3.8-34.3-5.6c-5.8-0.9-11.5-1.7-17.3-2.2c-5.6-0.5-11-1-16.4-2.5c-2.8-0.8-5.5-1.6-8.2-2.4
							c-0.1,0.7-0.1,1.4-0.2,2.1c1,0.3,2,0.6,3.1,0.9c1.1,0.3,1.2-1.8,0.2-2.1c-1-0.3-2-0.6-3.1-0.9c-1.1-0.3-1.2,1.8-0.2,2.1
							c5.3,1.6,10.6,3.3,16.1,4.1c5.7,0.8,11.5,0.9,17.2,1.7c11.4,1.5,22.6,3.7,34,5.6c2.9,0.5,5.8,0.9,8.7,1.2
							c2.7,0.3,5.5,0.3,8.1,0.7c5,0.7,9.8,2.4,14.6,4.1c10.6,3.7,21.4,6.1,32.5,7.9c11.5,1.9,23,3.4,34.3,6.4
							c11.5,3,22.9,6.8,34.3,10.1c22.4,6.6,44.9,13.1,67.2,20.3c11,3.6,22,7,33.3,9.5c5.4,1.2,11,1.8,16.4,3.1
							c2.7,0.6,5.4,1.4,8,2.1c2.6,0.7,5.2,0.9,7.8,1.2c2.9,0.3,5.7,0.6,8.4,1.6C231.3,235.5,231.7,233.4,230.7,233L230.7,233z"/>
					</g>
				</g>
				<g>
					<g>
						<path class="st4" d="M-30.2,165.7c2.4-1.6,5.2-2.5,7.9-3.4c3-0.9,6-1.9,8.9-3c6.2-2.1,12.3-4.4,18.4-6.7
							c12-4.5,23.9-9.3,36-13.5c6.1-2.1,12.2-4.1,18.3-5.8c6.1-1.7,12.2-2.8,18.3-4.3c6.1-1.5,12.1-3.2,18.2-4.6
							c6.3-1.4,12.6-2.1,19.1-1.9c25.5,0.6,50.4,7.8,76,7.5c6.6-0.1,13.2-0.9,19.9-1.3c6.5-0.3,13.1-0.5,19.6-0.5
							c13.2,0,26.4,0.4,39.6,0.3c21.4-0.2,43.4-1.8,64.4,3.3c3,0.7,6.4,1.6,8.9,3.4c1,0.7,1.7,1.2,1.2,2.4c-0.8,1.8-2.8,2.9-4.5,3.8
							c-3.7,1.8-7.9,2.7-11.7,4.3c-5.9,2.6-11.7,5.6-17.4,8.6c-11,5.7-22,10.6-34.1,13.4c-6.3,1.4-12.6,2.6-18.9,4
							c-6.2,1.3-12,3.6-18.4,3.3c-3.3-0.2-6.7-0.6-10-0.8c-3-0.2-6-0.1-9.1,0c-6.7,0.2-13.4,0.3-20.1,0.1c-13-0.2-25.8-1.5-38.8-2.5
							c-6.5-0.5-13-0.7-19.5-1.3c-6.7-0.6-13.3-1.6-19.9-2.4c-13.1-1.6-26.4-2.2-39.4-4.4c-6.5-1.1-12.8-2.8-19.1-4.7
							c-6.5-1.9-13-3.8-19.5-5.7c-3-0.9-6-1.9-9.2-2.4c-2.9-0.4-5.8-0.4-8.7-0.2c-4.9,0.4-10,1.1-14.9,1.8
							c-3.9,0.6-8.2,1.5-11.1,4.5c-0.4,0.4,0.1,2.1,0.7,2c11.4-1.4,22.9-1.2,34.3-1.2c12.1,0,24.2-0.5,36.2,0.2
							c12.1,0.7,23.8,3.1,35.6,5.5c5.9,1.2,11.8,2.3,17.6,3.9c5.6,1.5,11.2,3,17,3.9c11.1,1.8,22.5,0.3,33.6-0.9
							c5.9-0.6,11.8-1.6,17.6-2.7c5.6-1.1,11.3-2.1,16.8-3.8c5.2-1.5,10.1-4,15.3-5.4c5.3-1.4,10.9-1.6,16.3-2.6
							c2.8-0.5,5.4-1.2,8.2-1.5c2.8-0.3,5.6-0.3,8.4-0.2c5.2,0.2,10.3,0.7,15.5,0.7c5.4,0,10.5-0.8,15.5-2.6
							c2.5-0.9,4.9-1.8,7.4-2.6c2.4-0.7,5-1.1,7.4-2c2.3-0.9,4.5-2.1,6.9-3c2.5-0.9,5.1-1.3,7.7-1.8c2.8-0.6,5.6-1.2,8.4-1.8
							c2.5-0.5,5.3-0.4,7.8-1.1c2.2-0.7,3.9-2.3,6.3-1.8c0.7,0.1,0.3-2-0.4-2.1c-2.1-0.4-3.7,0.6-5.6,1.4c-2.3,1-4.9,0.8-7.4,1.2
							c-2.9,0.6-5.8,1.3-8.7,1.9c-2.6,0.6-5.3,0.8-7.9,1.7c-2.3,0.8-4.4,1.9-6.6,2.8c-2.4,1-4.7,1.5-7.2,2.1
							c-5.2,1.3-10,3.8-15.2,4.8c-10.7,1.9-21.5-0.8-32.2,0.1c-2.7,0.2-5.3,0.9-7.9,1.4c-2.7,0.5-5.4,0.9-8.2,1.2
							c-5.6,0.7-10.8,2-16.1,4c-5.2,2-10.4,3.6-15.8,4.8c-5.7,1.3-11.4,2.4-17.2,3.3c-5.8,0.9-11.6,1.5-17.4,2.1
							c-5.9,0.6-11.8,1.1-17.7,0.9c-11.8-0.4-22.9-4.6-34.3-7c-11.9-2.5-23.8-5.2-35.9-6.4c-11.8-1.2-23.6-1-35.4-0.8
							c-11.6,0.2-23.1-0.3-34.7,0.5c-2.8,0.2-5.7,0.4-8.5,0.8c0.2,0.7,0.5,1.3,0.7,2c3.2-3.3,8.3-4,12.6-4.6
							c5.1-0.7,10.3-1.6,15.5-1.7c6.9-0.2,13.3,2.2,19.8,4.1c6.5,1.9,13,3.8,19.5,5.7c13,3.9,26.6,5.1,40.1,6.3
							c13.4,1.2,26.8,3.5,40.2,4.4c13.3,0.9,26.5,2.2,39.8,2.9c6.3,0.3,12.5,0.5,18.8,0.5c6.9,0,13.8-0.6,20.7-0.3
							c6.4,0.2,12.8,1.7,19.2,0.4c2.9-0.6,5.7-1.5,8.6-2.2c3.2-0.8,6.4-1.4,9.5-2c6.5-1.3,13-2.6,19.4-4.4c5.9-1.7,11.5-4,17-6.6
							c10.7-5,20.8-11.7,32.1-15.3c4.1-1.3,16.1-5.2,10.6-11.5c-1.9-2.1-5-3.1-7.6-3.9c-3.1-1-6.3-1.6-9.6-2.1
							c-10.8-1.8-21.7-2.3-32.6-2.3c-13.4-0.1-26.7,0.5-40.1,0.3c-13.4-0.1-26.8-0.5-40.3,0c-6.7,0.3-13.3,1-19.9,1.3
							c-6.8,0.3-13.7,0-20.5-0.6c-13.2-1.2-26.2-3.6-39.3-5.1c-12.3-1.4-24.8-2.7-37.1-0.2c-6.4,1.3-12.6,3.1-18.9,4.7
							c-6.2,1.6-12.5,2.7-18.7,4.4c-25.4,6.8-49.6,17.8-74.4,26.4c-2.8,1-5.7,2-8.6,2.8c-2.8,0.9-5.5,1.8-7.9,3.4
							C-31.5,164-30.7,165.9-30.2,165.7L-30.2,165.7z"/>
					</g>
				</g>
				<g>
					<g>
						<path class="st4" d="M43.7,186.4c6.2,3.1,12.1,7.3,18.8,9.3c3.5,1,6.7,2,9.8,4c2.9,1.9,5.6,4.1,8.3,6.2
							c5.4,4.2,10.4,8.9,15.3,13.6c5.1,4.9,10.2,9.6,15.2,14.5c5.2,5,10.3,10,15.4,15.1c4.8,4.8,9.4,9.9,14.6,14.2
							c5,4.1,10.5,7.4,16.6,9.6c5.8,2,11.8,2.9,17.8,3.7c13.5,1.8,26.7,5,39.7,9.3c13,4.3,25.2,10,37.3,16.3
							c11.7,6.1,23.5,11.8,34.8,18.6c11.5,7,21.7,15.7,32.1,24.2c5.3,4.3,10.5,8.9,15,14.1c4.3,5,8.1,10.4,11.7,15.9
							c3.6,5.5,7.2,11,10.2,16.9c2.7,5.3,5.3,11,9.8,15c2.3,2,5,3.7,7.1,6c0.1-0.6,0.3-1.1,0.4-1.7c-29.2-9.4-58.4-18.9-86.5-31.3
							c-14.1-6.2-27.5-13.5-41-20.8c-6.8-3.7-13.7-7.1-20.9-10.1c-7-2.9-14.2-5.5-20.9-9c-11.9-6.2-21.9-15.3-31.4-24.7
							c-4.7-4.6-9.2-9.4-13.9-14.1c-5-5-10.2-9.7-14.7-15.1c-4.5-5.4-8.5-11.1-12.2-17c-3.5-5.4-6.6-11-11-15.8
							c-4.2-4.5-8.9-8.6-13-13.2c-3.8-4.3-6.3-9.3-9.3-14.2c-5-8.3-11.1-15.9-18.5-22.1c-8.2-6.8-17.6-11.9-27.4-15.9
							c-3-1.2-6-2.4-9-3.4c0.1,0.7,0.1,1.4,0.2,2c0.9,0,2,0,2.7-0.6c0.2-0.1,0.4-0.3,0.5-0.5c0.3-0.5,0.2-0.2-0.1-0.3
							c0.8,0.2,1.7,1.3,2.3,1.8c0.9,0.7,1.9,1.4,3,2.1c4.6,3,9.5,5.5,14.4,8c11.5,5.9,22.5,12.7,33.9,18.8
							c6.5,3.5,13.1,6.8,19.9,9.6c6.4,2.7,13.2,4.4,19.8,6.5c6.9,2.2,13.6,5,20.4,7.6c6.3,2.4,12.7,4.1,18.8,6.7
							c24.4,10.6,42.5,30.2,61.3,48.3c5.3,5.1,10.7,10.1,15.9,15.3c5,5,9.7,10.2,14.8,15.1c5.2,5,10.6,9.6,16.2,14.1
							c4.8,3.8,9.4,8,14.5,11.6c4.9,3.5,10.2,6.4,16,8.1c2.9,0.9,5.5,1.9,8,3.6c2.4,1.7,4.5,3.9,6.9,5.7c4.9,3.8,10.6,6.5,15,10.9
							c4.7,4.8,9.2,10.2,13.2,15.6c2.1,2.8,4,5.6,5.6,8.6c0.7,1.3,1.6,0,1-1c-3.3-5.9-7.4-11.2-11.7-16.3c-4.2-5-8.3-9.9-13.8-13.6
							c-2.6-1.8-5.3-3.4-7.8-5.2c-2.5-1.8-4.6-4-7-5.8c-4.8-3.7-10.7-4.6-16.2-7.2c-5.6-2.6-10.5-6.3-15.3-10.2
							c-5.2-4.2-10.5-8.4-15.5-12.7c-11.1-9.5-20.7-20.5-31.3-30.5c-10-9.5-19.6-19.4-29.7-28.7c-9.5-8.7-19.6-16.8-30.9-23.1
							c-5.7-3.2-11.7-5.8-18-7.9c-6.9-2.2-13.6-4.8-20.3-7.4c-6.7-2.6-13.5-4.5-20.3-6.7c-7-2.2-13.7-5-20.2-8.2
							c-6.6-3.2-13.1-6.7-19.5-10.3c-5.8-3.3-11.4-6.7-17.2-9.8c-5-2.6-10-5.1-14.9-7.8c-2.4-1.3-4.9-2.7-7.1-4.3
							c-1-0.7-1.9-1.4-2.8-2.2c-0.4-0.3-1.2-1.2-1.7-1.2c-0.5,0-0.4,0.3-0.7,0.5c-0.8,0.7-1.3,0.8-2.5,0.8
							C42.5,184.4,43,186.2,43.7,186.4c10.9,3.9,21.7,8.6,31.2,15.3c7.9,5.7,14.6,12.8,20,20.9c3,4.5,5.3,9.4,8.3,13.8
							c3.3,4.9,7.7,9,11.9,13.1c2.3,2.3,4.6,4.5,6.7,7c2.1,2.5,3.8,5.1,5.5,7.9c3.7,5.8,7.4,11.6,11.5,17.2
							c8,10.9,18.2,19.8,27.6,29.4c9.3,9.4,18.7,18.9,29.7,26.2c12.2,8.1,26.4,12.1,39.5,18.6c13.8,6.8,27,14.7,40.9,21.3
							c27.7,13.2,56.9,23,86,32.5c3.6,1.2,7.2,2.3,10.8,3.5c1,0.3,0.8-1.3,0.4-1.7c-2-2.2-4.4-3.9-6.8-5.8c-2.5-2.1-4.3-4.6-6-7.5
							c-3.2-5.5-5.8-11.5-9.3-16.9c-7.2-11.1-14.4-22.2-24.1-31.2c-5-4.6-10.3-8.7-15.6-13c-5.2-4.2-10.1-8.5-15.6-12.3
							c-10.8-7.5-22.5-13.5-34.2-19.5c-12-6.2-23.9-12.6-36.5-17.5c-12.6-4.9-25.7-8.8-38.9-11.4c-12.9-2.6-26.2-2.6-37.8-9.4
							c-5.7-3.3-10.6-7.7-15.2-12.4c-5.1-5.2-10.3-10.4-15.5-15.5c-5.1-5-10.3-9.9-15.6-14.9c-5-4.7-9.8-9.5-14.9-14.1
							c-5-4.4-10.3-8.9-15.9-12.5c-3.1-1.9-6.2-2.9-9.6-3.9c-3.4-1-6.5-2.7-9.6-4.4c-3.1-1.7-6.1-3.4-9.2-4.9
							C42.7,183.9,42.9,186,43.7,186.4L43.7,186.4z"/>
					</g>
				</g>
				<g>
					<g>
						<path class="st4" d="M339.7,220.5c4,7.5,9,15.1,9.7,23.8c0.4,5-0.8,9.7-2.6,14.3c-1.8,4.7-3.6,9.3-3.7,14.3
							c-0.2,8.6,4.9,15.5,7.9,23.2c1.6,4.3,2.9,8.7,4.7,12.9c1.3,3.1,3,5.8,5.5,8.1c2.8,2.5,5.9,4.7,8.6,7.3c2.2,2,5,4.7,4.7,7.9
							c0,0.5,0.1,1.1,0.6,1.4c0.4,0.2,0.8,0.1,0.9-0.4c0.5-6.6-6.3-11.2-10.8-14.9c-2.3-1.9-4.8-3.8-6.4-6.3
							c-2.4-3.8-3.6-8.3-5.1-12.5c-1.6-4.5-3.5-8.8-5.5-13c-1.7-3.5-3.2-7.1-3.5-11c-0.4-5.3,1.4-10.1,3.2-14.9
							c1.8-4.7,3.2-9.3,3.1-14.4c-0.2-10-5.8-18.6-10.3-27.1c-0.2-0.4-0.7-0.7-1.1-0.4C339.3,219.4,339.6,220.1,339.7,220.5
							L339.7,220.5z"/>
					</g>
				</g>
				<g>
					<g>
						<path class="st4" d="M403.6,363.8c4.7-1.2,3.1-6.3,1.5-9.5c-2.1-4.1-5.1-7.5-7.9-11.2c-2-2.5-3.5-5.9-5-8.9
							c-1.9-4-3.6-8.1-5.6-12.1c-1.8-3.7-4-7.1-6.3-10.5c-2-3-3.9-6.1-5-9.6c-0.7-2.4-1.1-4.9-0.9-7.5c0.2-2.3,0.6-4.6,0.8-6.9
							c0.4-4.7-1.4-9.4-0.7-14.1c0.1-0.6-0.9-2.4-1.1-1.3c-0.6,4.1,0.7,8,0.8,12.1c0.1,4.2-1.2,8.2-0.9,12.4
							c0.3,3.8,1.5,7.5,3.3,10.9c1.7,3.2,3.9,6.1,5.8,9.2c4.7,7.4,7.5,15.7,11.7,23.4c1.1,2,2.3,3.9,3.7,5.7
							c1.4,1.8,2.8,3.5,4.1,5.4c1.4,2,2.9,4.2,3.5,6.5c0.5,2.1-0.7,3.4-2.6,3.9C402.4,361.9,403,364,403.6,363.8L403.6,363.8z"/>
					</g>
				</g>
				<g>
					<g>
						<path class="st4" d="M565.1,252.3c-13-4.1-25.1-11-38.6-13.5c-6.7-1.3-13.6-1.3-20.2,0.5c-6.2,1.7-12.1,3.8-18.5,4.5
							c-3.9,0.5-7.9,0.6-11.9,0.5c-4-0.1-8.1-0.4-11.9-1.6c-1.2-0.4-1.4,1.7-0.4,2c6.6,2.1,13.8,1.9,20.6,1.5
							c6.4-0.4,12.6-1.8,18.8-3.7c3.3-1,6.5-2,10-2.3c3.4-0.4,6.9-0.3,10.4,0.2c6.8,0.9,13.3,3.1,19.6,5.6c7.2,2.8,14.3,6,21.7,8.3
							C565.9,254.7,566.1,252.6,565.1,252.3L565.1,252.3z"/>
					</g>
				</g>
				<g>
					<g>
						<path class="st4" d="M577.2,196c0.1-0.7,0.1-1.4,0.2-2c0-0.3,0-0.9-0.3-1.1c-5.6-3.6-12.4-4.3-18.9-4.2
							c-3.2,0.1-6.6,0.1-9.8,0.6c-3,0.4-6,1.3-9,1.9c-1.6,0.3-3.4,0.6-4.8,1.5c-0.4,0.3-0.7,0.7-1.1,0.9c-0.6,0.4-1.3,0.5-2.1,0.5
							c-0.7,0-0.9,2.2-0.2,2.2c1.1,0,1.9-0.2,2.8-0.8c1-0.8,1.9-1.3,3.2-1.7c1.7-0.5,3.4-0.7,5.1-1c1.5-0.3,2.9-0.7,4.4-1
							c3.1-0.7,6.4-0.7,9.5-0.8c3.3-0.1,6.7-0.1,10,0.4c3.7,0.5,7.3,1.6,10.5,3.7c-0.1-0.4-0.2-0.7-0.3-1.1
							c-0.1,0.7-0.1,1.4-0.2,2.1c0,0.3,0,1.1,0.4,1.1C577,197.1,577.2,196.3,577.2,196L577.2,196z"/>
					</g>
				</g>
			</g>
		</g>
		<path class="st3" d="M1534.3,584.8c-84.1,91.6-107.5,229.9-82.7,332.4c24.8,102.6,88.3,177.2,151.3,248
			c22.2,25,44.6,49.8,67.1,74.4c72,78.7,174,128.2,295.9,79c88.4-35.7,170.6-103.3,250.7-169.5c38.2-31.6,77.3-64.2,106.8-106.5
			c31.1-44.6,49.2-96.8,60.4-147.6c39.6-180-6.6-356.4-120.8-441.5c-62.3-46.4-140.7-65.7-214.8-91.4
			c-60.9-21.1-120.8-47.1-189.2-46.2c-68.4,0.8-149,34.7-198.1,105.6c-19.3,27.9-32.6,59.7-52.8,86.8
			C1586.4,537.1,1558.3,558.6,1534.3,584.8z"/>
	</g>
</g>
</svg>
